HIERARCHY
ROOT hip
{
  OFFSET 0 0 0
  CHANNELS 6 Xposition Yposition Zposition Zrotation Yrotation Xrotation
  JOINT abdomen
  {
    OFFSET 0 20.6881 -0.73152
    CHANNELS 3 Zrotation Xrotation Yrotation
    JOINT chest
    {
      OFFSET 0 11.7043 -0.48768
      CHANNELS 3 Zrotation Xrotation Yrotation
      JOINT neck
      {
        OFFSET 0 22.1894 -2.19456
        CHANNELS 3 Zrotation Xrotation Yrotation
        JOINT head
        {
          OFFSET -0.24384 7.07133 1.2192
          CHANNELS 3 Zrotation Xrotation Yrotation
          JOINT leftEye
          {
            OFFSET 4.14528 8.04674 8.04672
            CHANNELS 3 Zrotation Xrotation Yrotation
            End Site
            {
              OFFSET 1 0 0
            }
          }
          JOINT rightEye
          {
            OFFSET -3.6576 8.04674 8.04672
            CHANNELS 3 Zrotation Xrotation Yrotation
            End Site
            {
              OFFSET 1 0 0
            }
          }
        }
      }
      JOINT rCollar
      {
        OFFSET -2.68224 19.2634 -4.8768
        CHANNELS 3 Zrotation Xrotation Yrotation
        JOINT rShldr
        {
          OFFSET -8.77824 -1.95073 1.46304
          CHANNELS 3 Zrotation Xrotation Yrotation
          JOINT rForeArm
          {
            OFFSET -28.1742 -1.7115 0.48768
            CHANNELS 3 Zrotation Xrotation Yrotation
            JOINT rHand
            {
              OFFSET -22.5879 0.773209 7.07136
              CHANNELS 3 Zrotation Xrotation Yrotation
              JOINT rThumb1
              {
                OFFSET -1.2192 -0.487915 3.41376
                CHANNELS 3 Zrotation Xrotation Yrotation
                JOINT rThumb2
                {
                  OFFSET -3.37035 -0.52449 3.41376
                  CHANNELS 3 Zrotation Xrotation Yrotation
                  End Site
                  {
                    OFFSET -1.78271 -1.18214 1.43049
                  }
                }
              }
              JOINT rIndex1
              {
                OFFSET -7.75947 0.938293 5.60832
                CHANNELS 3 Zrotation Xrotation Yrotation
                JOINT rIndex2
                {
                  OFFSET -2.54057 -0.884171 1.56538
                  CHANNELS 3 Zrotation Xrotation Yrotation
                  End Site
                  {
                    OFFSET -1.62519 -0.234802 1.16502
                  }
                }
              }
              JOINT rMid1
              {
                OFFSET -8.24714 1.18213 3.41376
                CHANNELS 3 Zrotation Xrotation Yrotation
                JOINT rMid2
                {
                  OFFSET -3.10165 -0.590103 1.0647
                  CHANNELS 3 Zrotation Xrotation Yrotation
                  End Site
                  {
                    OFFSET -2.48547 -0.328903 0.83742
                  }
                }
              }
              JOINT rRing1
              {
                OFFSET -8.82822 0.546677 1.51678
                CHANNELS 3 Zrotation Xrotation Yrotation
                JOINT rRing2
                {
                  OFFSET -2.60934 -0.819778 -0.0198488
                  CHANNELS 3 Zrotation Xrotation Yrotation
                  End Site
                  {
                    OFFSET -2.33842 -0.294052 0.168128
                  }
                }
              }
              JOINT rPinky1
              {
                OFFSET -8.27202 -0.0477905 -0.4584
                CHANNELS 3 Zrotation Xrotation Yrotation
                JOINT rPinky2
                {
                  OFFSET -1.82734 -0.647385 -0.700984
                  CHANNELS 3 Zrotation Xrotation Yrotation
                  End Site
                  {
                    OFFSET -1.69225 -0.51767 -0.607171
                  }
                }
              }
            }
          }
        }
      }
      JOINT lCollar
      {
        OFFSET 2.68224 19.2634 -4.8768
        CHANNELS 3 Zrotation Xrotation Yrotation
        JOINT lShldr
        {
          OFFSET 8.77824 -1.95073 1.46304
          CHANNELS 3 Zrotation Xrotation Yrotation
          JOINT lForeArm
          {
            OFFSET 28.1742 -1.7115 0.48768
            CHANNELS 3 Zrotation Xrotation Yrotation
            JOINT lHand
            {
              OFFSET 22.5879 0.773209 7.07136
              CHANNELS 3 Zrotation Xrotation Yrotation
              JOINT lThumb1
              {
                OFFSET 1.2192 -0.487915 3.41376
                CHANNELS 3 Zrotation Xrotation Yrotation
                JOINT lThumb2
                {
                  OFFSET 3.37035 -0.52449 3.41376
                  CHANNELS 3 Zrotation Xrotation Yrotation
                  End Site
                  {
                    OFFSET 1.78271 -1.18214 1.43049
                  }
                }
              }
              JOINT lIndex1
              {
                OFFSET 7.75947 0.938293 5.60832
                CHANNELS 3 Zrotation Xrotation Yrotation
                JOINT lIndex2
                {
                  OFFSET 2.54057 -0.884171 1.56538
                  CHANNELS 3 Zrotation Xrotation Yrotation
                  End Site
                  {
                    OFFSET 1.62519 -0.234802 1.16502
                  }
                }
              }
              JOINT lMid1
              {
                OFFSET 8.24714 1.18213 3.41376
                CHANNELS 3 Zrotation Xrotation Yrotation
                JOINT lMid2
                {
                  OFFSET 3.10165 -0.590103 1.0647
                  CHANNELS 3 Zrotation Xrotation Yrotation
                  End Site
                  {
                    OFFSET 2.48547 -0.328903 0.83742
                  }
                }
              }
              JOINT lRing1
              {
                OFFSET 8.82822 0.546677 1.51678
                CHANNELS 3 Zrotation Xrotation Yrotation
                JOINT lRing2
                {
                  OFFSET 2.60934 -0.819778 -0.0198488
                  CHANNELS 3 Zrotation Xrotation Yrotation
                  End Site
                  {
                    OFFSET 2.33842 -0.294052 0.168128
                  }
                }
              }
              JOINT lPinky1
              {
                OFFSET 8.27202 -0.0477905 -0.4584
                CHANNELS 3 Zrotation Xrotation Yrotation
                JOINT lPinky2
                {
                  OFFSET 1.82734 -0.647385 -0.700984
                  CHANNELS 3 Zrotation Xrotation Yrotation
                  End Site
                  {
                    OFFSET 1.69225 -0.51767 -0.607171
                  }
                }
              }
            }
          }
        }
      }
    }
  }
  JOINT rButtock
  {
    OFFSET -8.77824 4.35084 1.2192
    CHANNELS 3 Zrotation Xrotation Yrotation
    JOINT rThigh
    {
      OFFSET 0 -1.70687 -2.19456
      CHANNELS 3 Zrotation Xrotation Yrotation
      JOINT rShin
      {
        OFFSET 0 -36.8199 0.73152
        CHANNELS 3 Zrotation Xrotation Yrotation
        JOINT rFoot
        {
          OFFSET 0.73152 -45.1104 -5.12064
          CHANNELS 3 Zrotation Xrotation Yrotation
          End Site
          {
            OFFSET -1.1221 -3.69964 12.103
          }
        }
      }
    }
  }
  JOINT lButtock
  {
    OFFSET 8.77824 4.35084 1.2192
    CHANNELS 3 Zrotation Xrotation Yrotation
    JOINT lThigh
    {
      OFFSET 0 -1.70687 -2.19456
      CHANNELS 3 Zrotation Xrotation Yrotation
      JOINT lShin
      {
        OFFSET 0 -36.8199 0.73152
        CHANNELS 3 Zrotation Xrotation Yrotation
        JOINT lFoot
        {
          OFFSET -0.73152 -45.1104 -5.12064
          CHANNELS 3 Zrotation Xrotation Yrotation
          End Site
          {
            OFFSET 1.1221 -3.69964 12.103
          }
        }
      }
    }
  }
}
MOTION
Frames:	4
Frame Time:	0.00833333
-19.2402 88.0798 92.6945 339.59 -69.3505 396.428 17.114 -0.811626 13.7178 0.596487 -11.0538 3.72133 -10.6504 6.92369 -10.9242 17.6529 4.16804 -21.3538 -0.0 0.0 0.0 -0.0 0.0 0.0 6.52102e-14 5.73304e-13 -4.70523e-13 132.241 -43.5936 58.8173 -2.78937 -0.797986 4.82054 -16.6596 70.5146 23.403 1.972e-09 -3.04163e-10 7.56943e-10 3.4157e-09 -5.54768e-10 1.17794e-09 1.972e-09 -3.04165e-10 7.56934e-10 7.73091 5.47488 0.417314 1.972e-09 -3.04165e-10 7.56937e-10 2.90554 0.965183 0.102902 1.972e-09 -3.04169e-10 7.56939e-10 10.2786 0.731801 0.0259123 1.97199e-09 -3.0417e-10 7.5694e-10 2.22167 -0.733487 -0.20892 6.51473e-14 5.73286e-13 -4.70921e-13 -17.9203 0.17669 -32.151 14.8284 -7.64272 -27.2363 0.020319 4.06597 -0.572406 1.12493e-09 -2.35467e-09 -8.75788e-10 1.93928e-09 -4.04342e-09 -1.51831e-09 1.12492e-09 -2.35467e-09 -8.75785e-10 -7.73091 5.47488 -0.417314 1.12493e-09 -2.35468e-09 -8.75782e-10 -2.90554 0.965183 -0.102902 1.12492e-09 -2.35468e-09 -8.75782e-10 -10.2786 0.731801 -0.0259123 1.12492e-09 -2.35468e-09 -8.75791e-10 -2.22167 -0.733487 0.20892 -2.03217e-16 0.0 -3.88251e-19 1.04075 -41.2681 33.47 -0.0713337 22.5052 0.649917 -4.19975 -68.7681 -4.54324 2.03217e-16 0.0 3.88251e-19 -1.66685 -45.4759 -26.8393 0.181707 30.0542 -0.346163 -0.564148 7.38311 14.917
-19.8422 87.3817 93.3982 335.269 -71.9337 401.337 17.6646 -1.91255 14.3642 0.448856 -10.3066 3.80754 -10.8954 7.01185 -10.5689 17.431 4.29109 -20.6755 -0.0 0.0 0.0 -0.0 0.0 0.0 1.91545e-13 8.60193e-13 -4.25272e-13 126.833 -43.0885 54.5017 -2.8841 -0.830163 4.98529 -11.6599 65.5437 18.0257 1.41628e-10 -1.35889e-10 1.03737e-10 2.42383e-10 -2.24865e-10 1.21888e-10 1.41632e-10 -1.35892e-10 1.03724e-10 7.73091 5.47488 0.417314 1.41629e-10 -1.35891e-10 1.03731e-10 2.90554 0.965183 0.102902 1.41631e-10 -1.35895e-10 1.03734e-10 10.2786 0.731801 0.0259123 1.41619e-10 -1.35895e-10 1.03737e-10 2.22167 -0.733487 -0.20892 1.91419e-13 8.6017e-13 -4.25671e-13 -18.9466 1.26636 -31.0026 15.0818 -7.86245 -27.7547 0.0195004 3.59675 -0.506536 -3.82625e-10 -5.72177e-10 -6.05065e-10 -6.6756e-10 -9.76234e-10 -1.03986e-09 -3.82634e-10 -5.72176e-10 -6.05058e-10 -7.73091 5.47488 -0.417314 -3.82627e-10 -5.72179e-10 -6.05059e-10 -2.90554 0.965183 -0.102902 -3.82636e-10 -5.7218e-10 -6.0506e-10 -10.2786 0.731801 -0.0259123 -3.82629e-10 -5.72184e-10 -6.05069e-10 -2.22167 -0.733487 0.20892 -2.03217e-16 0.0 -3.88251e-19 -0.47929 -40.1731 31.5471 -0.0588825 21.4124 0.621469 -2.45442 -69.3629 -2.71692 2.03217e-16 0.0 3.88251e-19 -1.1478 -46.9028 -25.4636 0.192376 30.5104 -0.343912 -0.66365 8.23662 13.5878
-20.4381 86.6003 93.974 328.531 -74.3915 408.731 18.1667 -2.99763 15.2045 0.331985 -9.51508 3.94672 -11.0642 6.96609 -10.2006 17.2243 4.50171 -19.9841 -0.0 0.0 0.0 -0.0 0.0 0.0 3.41834e-13 1.14191e-12 -2.469e-13 121.67 -42.223 50.4717 -3.05898 -0.889503 5.29041 -8.48162 60.6293 14.4654 -2.85369e-09 1.11392e-10 -1.10998e-09 -4.95719e-09 2.72889e-10 -1.83456e-09 -2.85368e-09 1.11389e-10 -1.11e-09 7.73091 5.47488 0.417314 -2.85369e-09 1.11391e-10 -1.10998e-09 2.90554 0.965183 0.102902 -2.85368e-09 1.11387e-10 -1.10998e-09 10.2786 0.731801 0.0259123 -2.8537e-09 1.11388e-10 -1.10997e-09 2.22167 -0.733487 -0.20892 3.41623e-13 1.14188e-12 -2.47273e-13 -19.9467 2.13908 -29.7898 15.3465 -8.09579 -28.3006 0.0196765 3.49411 -0.492162 -2.70849e-09 2.05356e-09 -5.18746e-11 -4.68768e-09 3.53868e-09 -6.85841e-11 -2.7085e-09 2.05357e-09 -5.18625e-11 -7.73091 5.47488 -0.417314 -2.70849e-09 2.05356e-09 -5.18695e-11 -2.90554 0.965183 -0.102902 -2.7085e-09 2.05356e-09 -5.18722e-11 -10.2786 0.731801 -0.0259123 -2.70849e-09 2.05356e-09 -5.1881e-11 -2.22167 -0.733487 0.20892 -2.03217e-16 0.0 -3.88251e-19 -1.95322 -39.3718 28.76 -0.0474966 20.2414 0.575507 0.456546 -69.1245 0.323479 2.03217e-16 0.0 3.88251e-19 -0.0911529 -48.4726 -22.5574 0.211745 31.4959 -0.352662 -0.727246 9.50373 11.5857
-21.1837 85.8577 94.6484 319.918 -76.6611 417.686 18.536 -3.90381 16.0156 0.223816 -8.78123 4.09045 -11.1565 6.91851 -9.83912 17.0455 4.61796 -19.3021 -0.0 0.0 0.0 -0.0 0.0 0.0 4.67943e-13 1.3387e-12 -3.72267e-14 116.82 -40.9787 46.746 -3.26883 -0.961477 5.65749 -6.33191 55.8269 11.9343 -5.7297e-09 3.44781e-10 -2.29275e-09 -9.95059e-09 7.44541e-10 -3.73694e-09 -5.72969e-09 3.44778e-10 -2.29278e-09 7.73091 5.47488 0.417314 -5.7297e-09 3.44781e-10 -2.29276e-09 2.90554 0.965183 0.102902 -5.7297e-09 3.44777e-10 -2.29275e-09 10.2786 0.731801 0.0259123 -5.72971e-09 3.44778e-10 -2.29275e-09 2.22167 -0.733487 -0.20892 4.67657e-13 1.33867e-12 -3.75614e-14 -20.9344 2.82255 -28.5173 15.6009 -8.32313 -28.8314 0.0201975 3.71694 -0.523458 -4.90395e-09 4.51968e-09 5.14476e-10 -8.48176e-09 7.77798e-09 9.24323e-10 -4.90396e-09 4.51968e-09 5.14494e-10 -7.73091 5.47488 -0.417314 -4.90395e-09 4.51968e-09 5.1448e-10 -2.90554 0.965183 -0.102902 -4.90395e-09 4.51968e-09 5.14476e-10 -10.2786 0.731801 -0.0259123 -4.90395e-09 4.51968e-09 5.14468e-10 -2.22167 -0.733487 0.20892 -2.03217e-16 0.0 -3.88251e-19 -3.21087 -38.5306 26.3347 -0.0416679 19.2319 0.516263 4.25763 -68.9165 4.30039 2.03217e-16 0.0 3.88251e-19 1.35689 -49.768 -18.8336 0.234248 32.7978 -0.37356 -0.619017 10.3211 9.52319
